<svg width="128" height="128" xmlns="http://www.w3.org/2000/svg">
  <defs>
    <linearGradient id="bookGradient" x1="0%" y1="0%" x2="100%" y2="100%">
      <stop offset="0%" style="stop-color:#4A90E2;stop-opacity:1" />
      <stop offset="100%" style="stop-color:#357ABD;stop-opacity:1" />
    </linearGradient>
  </defs>
  <rect x="20" y="25" width="88" height="78" fill="url(#bookGradient)" rx="4" ry="4"/>
  <rect x="22" y="27" width="88" height="78" fill="#2C5F8F" rx="4" ry="4" opacity="0.3"/>
  <rect x="20" y="25" width="85" height="75" fill="url(#bookGradient)" rx="4" ry="4"/>
  <line x1="28" y1="35" x2="95" y2="35" stroke="#E8F4FD" stroke-width="1.5"/>
  <line x1="28" y1="42" x2="90" y2="42" stroke="#E8F4FD" stroke-width="1.5"/>
  <line x1="28" y1="49" x2="95" y2="49" stroke="#E8F4FD" stroke-width="1.5"/>
  <line x1="28" y1="56" x2="85" y2="56" stroke="#E8F4FD" stroke-width="1.5"/>
  <line x1="28" y1="63" x2="92" y2="63" stroke="#E8F4FD" stroke-width="1.5"/>
  <line x1="28" y1="70" x2="88" y2="70" stroke="#E8F4FD" stroke-width="1.5"/>
  <line x1="28" y1="77" x2="95" y2="77" stroke="#E8F4FD" stroke-width="1.5"/>
  <line x1="28" y1="84" x2="90" y2="84" stroke="#E8F4FD" stroke-width="1.5"/>
  <line x1="28" y1="91" x2="88" y2="91" stroke="#E8F4FD" stroke-width="1.5"/>
  <text x="64" y="125" font-family="Arial, sans-serif" font-size="28" font-weight="bold" text-anchor="middle" fill="#4A90E2">A</text>
</svg>